<svg xmlns="http://www.w3.org/2000/svg" width="712" height="203" viewBox="0 0 712 203"><g fill="#31567d"><path d="M78.764 132.774v-6.218h8.825v-.585c0-6.228-2.87-10.785-22.647-7.361l-32.524 5.795-18.714 25.958 44.909-7.964c13.455-2.312 25.268-2.793 28.977 7.905v-17.53h-8.826zM93.725 150.305c0-8.469 5.002-14.285 15.215-24.498l7.195-7.196 32.889 5.795 18.747 25.929-43.125-7.438c-14.622-2.809-27.017-3.791-30.921 7.408z"/></g><path fill="#31567d" d="M95.548 126.542c3.258-6.99 10.195-13.311 14.185-17.299l2.838-2.884c12.078-12.078 14.4-17.074 15.132-25.391.034-.435.656 1.629.842 3.09.624 4.9.262 8.458-1.404 13.366-2.49 7.335-8.387 13.178-16.04 20.83l-8.324 8.287h-7.229zM102.561 25.267c0-.065.202-.102.202 0v9.632c0 8.711-11.195 18.762-15.655 23.193L70.705 74.538c-5.67 5.671-17.022 16.869-12.256 27.674.158.358.304.668-.302.237-1.213-.861-3.052-3.885-3.542-9.41-.873-9.85 5.842-18.668 14.125-26.95l15.645-15.665c15.866-15.867 17.413-18.664 18.186-25.157z"/><path fill="#31567d" d="M87.107 74.577c4.46-4.431 15.655-14.48 15.655-23.191v-9.633c0-.102-.202-.065-.202 0-.772 6.493-2.319 9.29-18.188 25.157L69.84 81.467c-5.279 5.279-10.122 10.815-9.899 19.753.137 5.476 2.891 10.015 7.034 11.085 1.705.368 1.601.146 1.196-.028-5.853-2.763-5.432-13.329 4.028-22.789l14.908-14.911zM68.862 60.007C56.784 72.085 54.462 77.08 53.73 85.398c-.034.434-.656-1.629-.842-3.091-.624-4.901-.262-8.458 1.404-13.367 2.49-7.334 8.387-13.178 16.041-20.83l14.04-14.064c15.868-15.869 17.415-18.664 18.188-25.157 0-.065.202-.102.202 0v9.633c0 8.711-11.195 18.761-15.655 23.191L68.862 60.007zM93.931 142.347c-.009.075-.206.075-.206 0v-9.572h4.008c-2.265 3.246-3.423 6.387-3.802 9.572zM93.961 126.557c-.009.072-.206.074-.206 0v-9.746c0-7.319 7.174-15.235 14.287-22.301l4.614-4.611c3.724-3.723 15.094-14.939 10.328-25.744-.158-.358-.304-.668.302-.238 1.213.861 3.052 3.885 3.542 9.411.873 9.848-5.842 18.666-14.125 26.949l-4.265 4.285c-10.283 10.286-13.704 14.894-14.477 21.995z"/><path fill="#31567d" d="M93.949 109.654c-.009.075-.205.075-.205 0v-9.892c0-6.981 6.923-14.514 10.283-17.874l5.207-5.197c9.46-9.46 9.881-20.027 4.028-22.79-.405-.172-.509-.394 1.196-.027 4.143 1.07 6.897 5.608 7.034 11.085.223 8.937-4.539 14.437-9.818 19.717l-4.222 4.222c-8.833 8.832-12.698 13.995-13.503 20.756zM190.335 142.654c-.174-.873.044-1.353.481-1.353.61 0 .61.524.829 1.439.523 2.009 3.143 6.548 9.166 6.548 4.148 0 8.206-2.313 8.206-6.897 0-8.423-17.721-3.708-17.721-15.103 0-5.542 4.67-8.204 9.69-8.204 5.28 0 6.722 1.571 7.333 1.571.393 0 .479-.481.917-.481.262 0 .479.131.522.611l.655 5.937c.045.35-.042.653-.479.653-.479 0-.785-.917-.917-1.31-1.309-3.752-4.496-5.673-8.336-5.673-3.448 0-7.115 1.658-7.115 5.673 0 8.206 17.721 3.405 17.721 15.452 0 3.667-2.575 9.166-12.483 9.166-3.229 0-7.203-1.614-7.377-2.399l-1.092-5.63zM227.914 136.372c0 1.139-.068 1.139 1.272 1.139h3.619c3.483 0 2.579-2.679 3.383-2.679.267 0 .368.368.368.636 0 1.172-.067 2.311-.067 3.384 0 .87.067 1.74.067 2.645 0 .302-.133.436-.368.436-1.039 0 .101-2.948-2.714-2.948h-4.956c-.705 0-.604.571-.604 1.073v6.162c0 1.977-.268 2.782 2.545 2.782 7.739 0 8.876-3.452 9.312-3.452.234 0 .268.337.268.402 0 1.205-.87 2.379-1.676 3.249-1.071 1.207-1.808 1.14-3.282 1.14-2.545 0-5.091-.2-7.636-.134-1.339.032-2.746.134-4.086.134-.302 0-.501-.066-.501-.336.066-.402.401-.335 1.472-.869.87-.403.939-1.341.939-2.916v-15.272c0-1.508 0-3.115-1.811-3.383-.268-.067-1.004-.136-1.004-.536 0-.268.202-.401 1.172-.401 6.331 0 8.072.134 9.479.134.67 0 3.752-.134 4.791-.134.267 0 .333.335.333.736 0 3.718-.467 3.986-.668 3.986-.804 0-.269-1.609-.804-2.381-.872-1.137-4.355-.936-5.695-.936-3.216 0-3.148-.134-3.148 2.109v6.23zM264.25 136.372c0 1.139-.068 1.139 1.272 1.139h3.617c3.483 0 2.581-2.679 3.385-2.679.268 0 .368.368.368.636 0 1.172-.066 2.311-.066 3.384 0 .87.066 1.74.066 2.645 0 .302-.134.436-.368.436-1.038 0 .099-2.948-2.714-2.948h-4.958c-.704 0-.603.571-.603 1.073v6.162c0 1.977-.268 2.782 2.545 2.782 7.737 0 8.876-3.452 9.312-3.452.234 0 .267.337.267.402 0 1.205-.871 2.379-1.674 3.249-1.072 1.207-1.809 1.14-3.283 1.14-2.545 0-5.091-.2-7.636-.134-1.341.032-2.747.134-4.087.134-.301 0-.502-.066-.502-.336.068-.402.403-.335 1.474-.869.87-.403.938-1.341.938-2.916v-15.272c0-1.508 0-3.115-1.809-3.383-.268-.067-1.005-.136-1.005-.536 0-.268.203-.401 1.174-.401 6.329 0 8.072.134 9.479.134.67 0 3.75-.134 4.789-.134.269 0 .337.335.337.736 0 3.718-.47 3.986-.671 3.986-.804 0-.269-1.609-.804-2.381-.872-1.137-4.354-.936-5.695-.936-3.216 0-3.148-.134-3.148 2.109v6.23zM327.239 136.372c0 1.139-.068 1.139 1.271 1.139h3.619c3.482 0 2.578-2.679 3.382-2.679.268 0 .368.368.368.636 0 1.172-.066 2.311-.066 3.384 0 .87.066 1.74.066 2.645 0 .302-.134.436-.368.436-1.038 0 .101-2.948-2.712-2.948h-4.959c-.702 0-.601.571-.601 1.073v6.162c0 1.977-.27 2.782 2.545 2.782 7.735 0 8.875-3.452 9.311-3.452.234 0 .268.337.268.402 0 1.205-.87 2.379-1.674 3.249-1.073 1.207-1.81 1.14-3.282 1.14-2.547 0-5.091-.2-7.638-.134-1.341.032-2.747.134-4.086.134-.302 0-.504-.066-.504-.336.068-.402.403-.335 1.477-.869.87-.403.936-1.341.936-2.916v-15.272c0-1.508 0-3.115-1.808-3.383-.268-.067-1.005-.136-1.005-.536 0-.268.201-.401 1.172-.401 6.331 0 8.072.134 9.479.134.67 0 3.753-.134 4.791-.134.268 0 .335.335.335.736 0 3.718-.469 3.986-.67 3.986-.805 0-.27-1.609-.805-2.381-.871-1.137-4.354-.936-5.695-.936-3.214 0-3.146-.134-3.146 2.109v6.23zM309.629 130.008c0-.234.135-1.507-.336-1.541h-5.459c-2.076 0-2.145.501-2.746 2.346-.102.333-.134.771-.57.771-.199 0-.335-.234-.335-.402l.368-3.249c.035-.403 0-1.306.604-1.306 2.611 0 5.191.134 9.512.134 6.063 0 9.146-.134 9.813-.134.771 0 .939.199.973.971l.167 2.679c.034.335.067.736-.368.736-1.24 0 .569-2.545-2.848-2.545h-4.789c-1.507 0-1.341-.134-1.341 1.643v17.082c0 2.812 2.714 1.709 2.714 2.747 0 .099.033.401-.302.401-.804 0-1.741-.134-2.712-.134-3.752 0-4.388.134-4.59.134-.302 0-.402-.102-.402-.437 0-.802 2.646-.469 2.646-2.478v-17.418zM379.147 123.91c0-.304.176-1.959-.436-2.002h-7.097c-2.7 0-2.787.652-3.572 3.047-.128.437-.172 1.002-.739 1.002-.261 0-.434-.304-.434-.522l.478-4.223c.043-.524 0-1.7.784-1.7 3.396 0 6.749.174 12.366.174 7.882 0 11.888-.174 12.758-.174 1.003 0 1.221.263 1.264 1.263l.217 3.484c.044.435.087.959-.478.959-1.612 0 .74-3.31-3.701-3.31h-6.228c-1.96 0-1.743-.176-1.743 2.132v22.208c0 3.659 3.528 2.222 3.528 3.572 0 .128.044.521-.393.521-1.045 0-2.264-.174-3.526-.174-4.877 0-5.704.174-5.964.174-.393 0-.522-.13-.522-.564 0-1.045 3.438-.609 3.438-3.223V123.91zM215.249 129.507c-.033-2.447-2.712-1.776-2.712-2.513 0-.303.068-.368.335-.368 1.24 0 2.445.134 3.685.134 1.039 0 2.077-.134 3.115-.134.535 0 .636.065.636.335 0 .804-2.412.033-2.412 2.546v17.986c0 2.276 2.981 1.508 2.981 2.511 0 .234-.101.336-.67.336-.771 0-2.21-.134-3.65-.134-2.043 0-2.747.134-3.215.134-.603 0-.705-.169-.705-.502 0-.973 2.613.134 2.613-3.183v-17.148zM404.118 142.333c-.337-.77-.536-1.271-1.476-1.271h-7.367c-.638 0-1.24 0-1.575.702l-2.145 4.691a3.46 3.46 0 0 0-.232 1.17c0 2.347 2.377 1.341 2.377 2.213 0 .603-.469.502-.905.502-.938 0-1.875-.134-2.812-.134-.904 0-1.808.134-2.68.134-.201 0-.302-.169-.302-.368 0-.704 1.575-.134 2.445-2.044l8.006-17.083c1.977-4.219 2.077-4.756 2.513-4.756.368 0 .603.971.703 1.24l6.967 17.249c.501 1.24.904 2.646 1.674 3.818 1.005 1.542 2.948.804 2.948 1.641 0 .303-.234.303-.469.303-1.374 0-2.747-.134-4.119-.134-.904 0-1.811.134-2.714.134-.201 0-.738 0-.738-.336 0-.804 2.011-.469 2.011-1.741 0-.736-.703-2.278-1.038-3.181l-1.072-2.749zm-9.045-3.35c-.234.471 0 .604.437.604h6.633c.736 0 .703-.234.534-.67l-3.283-8.073c-.167-.402-.333-.402-.535 0l-3.786 8.139zM276.486 126.657c.585 0 1.098.146 1.608.146.512 0 1.022-.146 1.534-.146.367 0 .658.512.877.73l16.006 17.833c.146.221.292.364.365.364.072 0 .146-.144.146-.364v-14.031c0-4.387-3.727-3.07-3.727-4.239 0-.22.146-.293.365-.293.951 0 1.974.146 2.997.146 1.17 0 2.63-.146 3.435-.146.146 0 .293.073.293.293 0 .877-1.974.292-1.974 2.704v19.367c0 1.022 0 1.46-.292 1.46-.219 0-.585-.146-1.243-.949L282.48 133.31c-.074 0-.512-.586-.73-.586-.146 0-.22.073-.22.731v13.738c0 2.997 2.923 1.828 2.923 2.703 0 .221 0 .439-.365.439-.805 0-1.755-.071-3.363-.071-1.168 0-2.922.071-3.141.071-.439 0-.439-.146-.439-.364 0-1.171 2.924.293 2.924-4.387v-12.351c0-6.942-4.02-5.042-4.02-6.284 0-.146.292-.292.437-.292zM339.474 126.657c.585 0 1.097.146 1.607.146.513 0 1.024-.146 1.535-.146.366 0 .658.512.879.73l16.004 17.833c.147.221.292.364.364.364.075 0 .147-.144.147-.364v-14.031c0-4.387-3.728-3.07-3.728-4.239 0-.22.147-.293.366-.293.95 0 1.973.146 2.997.146 1.168 0 2.631-.146 3.433-.146.147 0 .294.073.294.293 0 .877-1.973.292-1.973 2.704v19.367c0 1.022 0 1.46-.294 1.46-.219 0-.585-.146-1.243-.949l-14.396-16.223c-.072 0-.51-.586-.73-.586-.146 0-.221.073-.221.731v13.738c0 2.997 2.924 1.828 2.924 2.703 0 .221 0 .439-.364.439-.804 0-1.754-.071-3.361-.071-1.171 0-2.925.071-3.144.071-.438 0-.438-.146-.438-.364 0-1.171 2.923.293 2.923-4.387v-12.351c0-6.942-4.02-5.042-4.02-6.284.001-.145.292-.291.439-.291zM597.69 126.637c1.241 0 2.41.146 3.651.146 1.096 0 2.118-.146 3.14-.146.512 0 .657.072.657.291 0 .806-2.41.073-2.41 2.558v17.963c0 2.337 2.923 1.535 2.923 2.556 0 .219-.073.294-.658.294-.73 0-2.191-.075-3.651-.075-2.044 0-2.702.075-3.214.075-.584 0-.655-.147-.655-.513 0-.949 2.557.146 2.557-3.141v-17.159c0-2.411-2.704-1.752-2.704-2.484-.001-.293.072-.365.364-.365zM544.676 137.518c3.505 0 2.629-2.703 3.433-2.703.219 0 .364.366.364.658 0 1.169-.073 2.265-.073 3.359 0 .877.073 1.752.073 2.629 0 .292-.146.438-.364.438-1.022 0 .072-2.92-2.702-2.92h-4.966c-.729 0-.583.583-.583 1.096v6.133c0 1.973-.292 2.776 2.482 2.776 7.741 0 8.907-3.433 9.346-3.433.22 0 .22.291.22.364 0 1.241-.877 2.41-1.607 3.285-1.096 1.171-1.825 1.098-3.285 1.098-2.556 0-5.112-.147-7.668-.075-1.314 0-2.702.075-4.089.075-.292 0-.511-.075-.511-.294.071-.438.438-.364 1.458-.875.877-.439.952-1.314.952-2.922v-15.261c0-1.533 0-3.142-1.754-3.36-.292-.073-1.021-.146-1.021-.585 0-.219.219-.364 1.166-.364 6.281 0 8.033.146 9.493.146.658 0 3.725-.146 4.747-.146.294 0 .365.291.365.73 0 3.725-.511 3.943-.657 3.943-.804 0-.293-1.607-.804-2.337-.875-1.169-4.381-.948-5.695-.948-3.212 0-3.139-.146-3.139 2.116v6.208c0 1.168-.073 1.168 1.239 1.168h3.58zM552.052 126.637c.583 0 1.096.146 1.605.146.511 0 1.023-.146 1.533-.146.366 0 .656.512.877.73l15.992 17.818c.146.218.292.365.364.365.073 0 .146-.147.146-.365v-14.021c0-4.383-3.723-3.066-3.723-4.237 0-.219.146-.291.364-.291.948 0 1.971.146 2.993.146 1.169 0 2.629-.146 3.432-.146.147 0 .293.072.293.291 0 .877-1.971.294-1.971 2.702v19.354c0 1.021 0 1.46-.293 1.46-.219 0-.586-.146-1.242-.949l-14.386-16.211c-.072 0-.51-.585-.729-.585-.148 0-.221.072-.221.729v13.729c0 2.994 2.922 1.827 2.922 2.702 0 .219 0 .439-.364.439-.804 0-1.754-.075-3.36-.075-1.168 0-2.92.075-3.139.075-.439 0-.439-.147-.439-.366 0-1.169 2.922.291 2.922-4.381v-12.34c0-6.938-4.018-5.039-4.018-6.282.002-.146.295-.291.442-.291zM661.326 126.637c.583 0 1.096.146 1.607.146.511 0 1.021-.146 1.532-.146.364 0 .658.512.877.73l15.993 17.818c.145.218.292.365.365.365.072 0 .146-.147.146-.365v-14.021c0-4.383-3.725-3.066-3.725-4.237 0-.219.146-.291.364-.291.95 0 1.971.146 2.994.146 1.168 0 2.629-.146 3.433-.146.146 0 .292.072.292.291 0 .877-1.971.294-1.971 2.702v19.354c0 1.021 0 1.46-.294 1.46-.219 0-.583-.146-1.239-.949l-14.388-16.211c-.073 0-.509-.585-.729-.585-.146 0-.219.072-.219.729v13.729c0 2.994 2.921 1.827 2.921 2.702 0 .219 0 .439-.365.439-.804 0-1.754-.075-3.359-.075-1.169 0-2.921.075-3.14.075-.439 0-.439-.147-.439-.366 0-1.169 2.923.291 2.923-4.381v-12.34c0-6.938-4.017-5.039-4.017-6.282.001-.146.293-.291.438-.291zM579.509 128.463c-2.118 0-2.191.511-2.776 2.335-.145.367-.145.805-.584.805-.219 0-.291-.292-.291-.438l.364-3.213c0-.439 0-1.315.583-1.315 2.631 0 5.187.146 9.493.146 6.063 0 9.13-.146 9.786-.146.804 0 .95.22 1.022.949l.146 2.702c0 .293.072.73-.365.73-1.241 0 .585-2.556-2.85-2.556h-4.818c-1.241 0-1.314.073-1.314 1.606v17.087c0 2.848 2.702 1.754 2.702 2.775 0 .072.073.366-.292.366-.804 0-1.753-.075-2.701-.075-3.725 0-4.383.075-4.602.075-.292 0-.364-.075-.364-.439 0-.802 2.628-.438 2.628-2.483v-17.379c0-.219.073-1.533-.438-1.533h-5.329z"/><path fill="#31567d" d="M524.301 148.91c-.363.875-.583 1.971-1.094 1.971-.585 0-.95-1.46-1.241-2.118l-8.252-19.57c-.804-1.971-2.63-1.388-2.63-2.118 0-.292.22-.438.512-.438 1.022 0 2.044.146 3.066.146.877 0 2.191-.146 2.631-.146.217 0 .438.146.438.291.073.513-1.314.513-1.314 1.754 0 .439.146.948.292 1.314l5.841 13.729c.804 1.825.95 2.556 1.314 2.556.366 0 .438-.512.658-.949l5.768-14.313c.22-.51.658-1.605.511-2.264 0-1.533-2.189-.95-2.189-1.681 0-.365.219-.438.513-.438.729 0 1.46.146 2.262.146 1.606 0 2.044-.146 2.557-.146.366 0 .583.146.583.438 0 .73-.948-.146-1.897 2.118l-8.329 19.718zM495.021 150.223c-.221 0-2.046.075-3.068.075-1.825 0-2.921-.075-4.381-.075-1.241 0-2.41.148-3.651.148-.219 0-.95 0-.95-.439 0-1.096 2.629-.656 2.629-2.338 0-.949-.875-2.993-1.314-4.162l-1.46-3.649c-.438-1.022-.656-1.681-1.897-1.681h-9.786c-.877 0-1.68 0-2.117.949l-2.774 6.208c-.147.292-.365.948-.365 1.533 0 3.066 3.14 1.752 3.14 2.921 0 .802-.583.658-1.168.658-1.242 0-2.483-.148-3.725-.148-1.169 0-2.41.148-3.579.148-.219 0-.364-.221-.364-.513 0-.875 2.045-.146 3.214-2.702l10.588-22.563c2.629-5.624 2.773-6.354 3.358-6.354.511 0 .804 1.314.948 1.681l9.201 22.855c.658 1.606 1.17 3.432 2.191 5.039.73 1.021 1.387 1.386 2.264 1.386.729 0 1.314-.875 1.314-2.335v-16.648c0-3.435-2.702-2.337-2.702-3.289 0-.219.22-.291.438-.291 1.022 0 2.045.146 2.993.146 2.264 0 4.383-.146 7.303-.146 5.914 0 11.757 4.455 11.757 10.661 0 7.667-3.651 13-12.923 13-1.756 0-3.436-.075-5.114-.075zm.875-20.664v15.917c0 .513-.073 2.118.219 2.412 1.096 1.096 3.651 1.533 5.185 1.533 4.748 0 9.274-2.556 9.274-10.297 0-7.449-4.965-11.611-11.319-11.684-3.214 0-3.359.585-3.359 2.119zm-20.008-4.966l-5.039 10.734c-.292.656 0 .804.585.804h8.762c1.022 0 .95-.292.731-.877l-4.309-10.661c-.22-.584-.439-.584-.73 0zM644.28 127.586l.146 2.702c0 .293.073.73-.366.73-1.239 0 .585-2.556-2.846-2.556h-4.82c-1.314 0-1.314.073-1.314 1.606v17.087c0 2.848 2.702 1.754 2.702 2.775 0 .072.072.366-.294.366-.802 0-1.752-.075-2.7-.075-3.724 0-4.382.075-4.601.075-.292 0-.365-.075-.365-.439 0-.802 2.629-.438 2.629-2.483v-17.379c0-.219.073-1.533-.438-1.533h-6.938c-2.045 0-1.971.729-1.971 1.897 0 .367.292 1.825-.366 1.825-.364 0-.584-.729-.729-1.021-1.022-2.85-3.359-3.871-6.28-3.871-2.702 0-5.477 1.314-5.477 4.381 0 6.281 13.584 2.629 13.584 11.83 0 2.85-1.973 7.083-9.567 7.083-2.483 0-5.55-1.24-5.695-1.898l-.805-4.308c-.146-.656 0-1.022.367-1.022.438 0 .438.439.656 1.096.364 1.533 2.41 5.039 7.01 5.039 3.212 0 6.28-1.752 6.28-5.331 0-6.426-13.582-2.848-13.582-11.538 0-4.235 3.579-6.28 7.447-6.28 4.017 0 5.112 1.168 5.622 1.168.513 0 .585-.876 1.242-.876 2.629 0 6.353.146 10.661.146 6.062 0 9.128-.146 9.786-.146.802.001.949.22 1.022.95z"/><path fill="#31567d" d="M649.154 136.372c0 1.138-.066 1.138 1.271 1.138h3.611c3.478 0 2.575-2.676 3.377-2.676.268 0 .368.368.368.635 0 1.171-.067 2.308-.067 3.378 0 .869.067 1.737.067 2.641 0 .302-.134.436-.368.436-1.036 0 .101-2.942-2.709-2.942h-4.948c-.703 0-.603.567-.603 1.071v6.149c0 1.975-.268 2.777 2.542 2.777 7.724 0 8.86-3.445 9.297-3.445.232 0 .267.335.267.401 0 1.205-.869 2.375-1.672 3.243-1.071 1.205-1.806 1.139-3.276 1.139-2.542 0-5.084-.203-7.626-.135-1.337.034-2.74.135-4.077.135-.302 0-.504-.069-.504-.335.068-.402.403-.335 1.473-.87.868-.4.937-1.337.937-2.91v-15.245c0-1.507 0-3.111-1.807-3.379-.267-.065-1.003-.134-1.003-.534 0-.268.201-.401 1.17-.401 6.32 0 8.059.134 9.463.134.669 0 3.746-.134 4.782-.134.268 0 .335.333.335.734 0 3.712-.469 3.979-.67 3.979-.802 0-.268-1.604-.802-2.373-.869-1.138-4.347-.937-5.686-.937-3.209 0-3.143-.135-3.143 2.106v6.22zM243.259 130.027c0-2.54-2.973-2.207-2.973-2.875 0-.5.5-.468.901-.468.668 0 1.337.134 2.674.134s2.672-.134 5.346-.134c5.881 0 7.35 3.209 7.35 5.682 0 3.407-3.141 4.51-3.141 4.744 0 .501 5.246.601 5.246 6.148 0 2.203-1.604 7.082-8.119 7.082-1.202 0-3.207-.134-4.343-.134-1.537 0-3.108.134-4.645.134-.168 0-.835-.065-.835-.368 0-.333.401-.432 1.002-.634.368-.099 1.537-.267 1.537-2.873v-16.438zm2.64 16.305c0 2.404-.165 3.106 4.579 3.106 4.443 0 5.646-2.938 5.646-4.943 0-2.14-.134-6.416-7.819-6.416-2.571 0-2.406.469-2.406.768v7.485zm0-10.526c0 1.07-.401 1.236 2.606 1.236 5.482 0 5.749-2.036 5.749-3.607 0-3.608-3.04-5.647-6.416-5.647-2.104 0-1.939.568-1.939 2.508v5.51zM433.255 137.9c.267 0 .9-.134.9.3 0 .702-1.703-.067-1.703 2.173v6.814c-3.439 1.103-4.343 3.376-10.29 3.376-7.383 0-11.96-4.579-11.96-11.995 0-7.216 5.411-12.194 12.495-12.194 5.778 0 7.449 2.271 8.385 2.271.368 0 .502-.603.87-.603.467 0 .333.503.366.769l.334 4.378c0 .268-.031.601-.367.601-.869 0-2.371-6.447-10.256-6.447-6.014 0-9.021 5.077-9.021 10.59 0 5.914 3.406 11.562 9.855 11.562 3.04 0 6.948-1.504 6.948-4.345v-5.178c0-1.569-2.906-.868-2.906-1.705 0-.433.469-.366.77-.366h5.58zM435.112 144.415c-.134-.669.035-1.037.368-1.037.467 0 .467.403.636 1.103.399 1.537 2.403 5.014 7.015 5.014 3.174 0 6.282-1.771 6.282-5.279 0-6.448-13.564-2.84-13.564-11.561 0-4.242 3.573-6.28 7.416-6.28 4.042 0 5.145 1.201 5.612 1.201.302 0 .367-.366.703-.366.199 0 .366.1.399.468l.501 4.544c.033.267-.032.502-.367.502-.367 0-.602-.702-.7-1.002-1.004-2.876-3.441-4.345-6.383-4.345-2.64 0-5.445 1.27-5.445 4.345 0 6.278 13.564 2.604 13.564 11.826 0 2.806-1.971 7.017-9.556 7.017-2.472 0-5.513-1.236-5.646-1.839l-.835-4.311zM375.604 138.35c0 1.596.106 1.596-1.169 2.021l-6.806 2.339c-.64.214-1.171.533-1.49.533-.531 0-.426-.638-.426-.957 0-1.702-.105-1.702 1.171-2.127l6.807-2.341c.531-.212 1.168-.531 1.489-.531.53 0 .424.745.424 1.063zM463.509 138.35c0 1.596.107 1.596-1.17 2.021l-6.807 2.339c-.638.214-1.169.533-1.488.533-.531 0-.426-.638-.426-.957 0-1.702-.105-1.702 1.171-2.127l6.807-2.341c.531-.212 1.17-.531 1.488-.531.532 0 .425.745.425 1.063zM693.724 120.245c1.529 0 2.832.536 3.912 1.616 1.076 1.076 1.616 2.381 1.616 3.91 0 1.528-.54 2.83-1.622 3.907-1.074 1.076-2.382 1.614-3.906 1.614-1.712 0-3.112-.647-4.202-1.948-.881-1.047-1.321-2.238-1.321-3.573 0-1.359.434-2.554 1.314-3.589 1.104-1.291 2.506-1.937 4.209-1.937zm0 .61c-1.353 0-2.517.481-3.477 1.439-.955.962-1.435 2.122-1.435 3.48 0 1.355.479 2.516 1.435 3.476.96.962 2.124 1.441 3.477 1.441 1.354 0 2.513-.479 3.473-1.441.958-.96 1.439-2.12 1.439-3.476 0-1.363-.478-2.525-1.435-3.481-.957-.956-2.12-1.438-3.477-1.438zm.694 4.899l1.234 1.803.153.219c.384.562.734.851 1.041.866l.145.007c.099.006.147.049.143.138-.013.149-.256.226-.728.226-.544 0-1.031-.33-1.469-.984l-1.157-1.736-.057-.101c-.068-.104-.169-.156-.314-.156h-.616l-.066.007-.024.095v1.604c0 .359.045.594.146.709.095.107.312.184.649.221.148.016.226.069.235.168 0 .104-.069.153-.222.153-.047 0-.145-.009-.287-.023a4.762 4.762 0 0 0-.585-.023h-.69c-.094 0-.221.01-.386.031-.122.01-.2.016-.232.016-.14 0-.207-.053-.207-.156 0-.079.058-.129.172-.157.239-.055.393-.159.458-.312.062-.152.098-.482.098-.991v-3.272l-.011-.473c0-.441-.152-.681-.462-.729l-.215-.029c-.136-.026-.205-.087-.205-.179 0-.103.073-.154.216-.154.034 0 .147.008.333.022.099.007.232.009.406.009.146 0 .389-.009.723-.031.253-.013.47-.021.658-.021 1.478 0 2.217.544 2.217 1.634 0 .679-.364 1.212-1.094 1.599zm-1.459-.197h.518c.81 0 1.216-.391 1.216-1.182 0-.398-.151-.73-.451-1-.303-.267-.674-.402-1.124-.402-.283 0-.427.112-.427.337l.012.154v1.83c0 .125.014.196.038.223.022.027.095.04.218.04zM168.313 130.023c1.53 0 2.832.537 3.911 1.617 1.077 1.076 1.616 2.381 1.616 3.91 0 1.528-.539 2.83-1.62 3.907-1.077 1.076-2.382 1.614-3.907 1.614-1.712 0-3.111-.647-4.202-1.948-.881-1.047-1.323-2.238-1.323-3.573 0-1.359.435-2.555 1.314-3.589 1.106-1.291 2.51-1.938 4.211-1.938zm0 .612c-1.354 0-2.516.481-3.477 1.439-.955.962-1.435 2.122-1.435 3.48 0 1.355.48 2.516 1.435 3.476.961.962 2.124 1.441 3.477 1.441s2.512-.479 3.472-1.441c.959-.96 1.439-2.12 1.439-3.476 0-1.363-.477-2.525-1.435-3.481-.955-.957-2.118-1.438-3.476-1.438zm.695 4.898l1.235 1.803.152.219c.384.562.735.851 1.042.866l.145.007c.099.006.146.049.141.138-.011.149-.254.226-.728.226-.543 0-1.031-.33-1.468-.984l-1.156-1.736-.058-.102c-.067-.104-.168-.156-.313-.156h-.617l-.067.008-.023.095v1.604c0 .359.046.594.145.709.097.107.312.184.65.221.149.016.227.069.235.168.002.104-.069.152-.222.152-.047 0-.144-.008-.286-.022a4.702 4.702 0 0 0-.584-.024h-.692c-.093 0-.221.011-.385.031-.123.011-.2.016-.232.016-.139 0-.208-.052-.208-.156 0-.078.057-.128.172-.156.24-.055.393-.159.458-.312.063-.152.098-.482.098-.991v-3.273l-.01-.472c0-.441-.153-.681-.462-.729l-.215-.029c-.136-.026-.205-.087-.205-.179 0-.103.073-.155.216-.155.035 0 .146.009.332.023.101.007.234.008.408.008.146 0 .387-.008.721-.031.254-.012.471-.021.657-.021 1.479 0 2.219.544 2.219 1.634-.001.68-.366 1.213-1.095 1.6zm-1.459-.198h.518c.809 0 1.215-.391 1.215-1.181 0-.399-.152-.73-.452-1-.302-.268-.675-.402-1.124-.402-.283 0-.426.112-.426.337l.011.154v1.83c0 .125.013.196.038.223.025.027.096.039.22.039z"/><g fill="#31567d"><path d="M199.829 88.102c0 1.477-.087 1.477 1.65 1.477h4.69c4.517 0 3.344-3.474 4.386-3.474.348 0 .478.478.478.825 0 1.52-.086 2.996-.086 4.386 0 1.129.086 2.258.086 3.431 0 .391-.173.564-.478.564-1.346 0 .13-3.821-3.518-3.821h-6.427c-.999 0-.781.738-.781 1.39v8.772c0 4.125 4.082 2.996 4.082 3.995 0 .607-.651.607-.956.607-.304 0-.738-.217-4.777-.217-2.215 0-3.735.217-4.517.217a.42.42 0 0 1-.434-.391c0-1.216 3.17.044 3.17-4.776V81.066c0-1.954 0-4.038-2.345-4.386-.348-.087-1.303-.174-1.303-.694 0-.348.26-.521 1.52-.521 8.208 0 10.465.174 12.29.174.869 0 4.864-.174 6.21-.174.347 0 .434.435.434.955 0 4.82-.608 5.168-.868 5.168-1.042 0-.348-2.084-1.042-3.083-1.129-1.477-5.646-1.216-7.382-1.216-4.169 0-4.082-.174-4.082 2.735v8.078zM230.814 102.533c2.403 3.671 4.038 2.436 4.038 3.237 0 .4-1.869.4-2.169.4-2.437 0-3.738-1.702-5.006-3.604l-3.704-5.84c-1.202-1.869-.701-1.769-4.438-1.769-1.068 0-.868.601-.868.935v7.041c0 2.87 3.471 1.835 3.471 2.97 0 .334-.3.268-.567.268-.3 0-1.068-.134-3.837-.134-1.269 0-2.537.134-3.805.134-.2 0-.333-.167-.333-.367 0-.835 2.436-.367 2.436-2.903V85.914c0-3.203-2.87-1.835-2.87-2.97 0-.2.267-.4.667-.4.601 0 .434.134 2.136.134 1.936 0 3.838-.134 5.573-.134.534 0 7.909-.667 7.909 5.773 0 2.603-1.869 4.839-4.205 5.772l5.572 8.444zm-12.147-9.177c0 .634 2.069.467 3.638.467 1.435 0 4.638-.601 4.638-4.738 0-4.071-3.104-5.439-6.374-5.439-1.202 0-1.902-.067-1.902 1.234v8.476zM240.422 92.255c0 1.135-.067 1.135 1.268 1.135h3.604c3.471 0 2.57-2.67 3.371-2.67.267 0 .367.367.367.634 0 1.168-.067 2.303-.067 3.371 0 .867.067 1.735.067 2.636 0 .301-.134.435-.367.435-1.035 0 .1-2.938-2.703-2.938h-4.939c-.701 0-.601.567-.601 1.068v6.141c0 1.969-.267 2.77 2.536 2.77 7.708 0 8.843-3.438 9.277-3.438.233 0 .267.334.267.4 0 1.201-.868 2.369-1.668 3.237-1.068 1.201-1.802 1.135-3.271 1.135-2.536 0-5.072-.2-7.608-.134-1.335.033-2.736.134-4.071.134-.3 0-.5-.067-.5-.334.067-.4.4-.334 1.468-.868.868-.4.935-1.334.935-2.902V86.849c0-1.502 0-3.104-1.802-3.37-.267-.067-1.001-.134-1.001-.534 0-.267.2-.4 1.168-.4 6.307 0 8.042.134 9.444.134.667 0 3.738-.134 4.772-.134.267 0 .334.334.334.734 0 3.704-.467 3.971-.667 3.971-.801 0-.267-1.602-.801-2.369-.868-1.135-4.338-.935-5.673-.935-3.204 0-3.137-.133-3.137 2.103v6.206zM256.304 85.414c-.033-2.437-2.703-1.769-2.703-2.503 0-.301.067-.367.334-.367 1.235 0 2.436.134 3.671.134 1.034 0 2.069-.134 3.104-.134.534 0 .634.066.634.334 0 .801-2.403.033-2.403 2.536v17.92c0 2.27 2.97 1.502 2.97 2.503 0 .233-.1.334-.667.334-.768 0-2.203-.134-3.637-.134-2.036 0-2.736.134-3.204.134-.601 0-.701-.167-.701-.501 0-.968 2.603.134 2.603-3.17V85.414zM275.924 87.216c.634-.567 2.369-1.869 2.369-2.703 0-1.067-1.869-.968-1.869-1.568 0-.267.167-.4.435-.4 1.234 0 1.769.134 3.537.134 1.735 0 2.002-.134 3.07-.134.2 0 .601.033.601.267 0 1.068-.768-.2-4.572 2.903l-7.809 6.941c-.3.267-.5.467-.5.634 0 .2.133.367.367.635l9.277 9.711c2.236 2.336 3.671 1.067 3.671 2.102 0 .268-.167.435-.4.435-.667 0-1.368-.134-2.035-.134-.701 0-1.369.134-2.069.134-.434 0-.701-.534-1.001-.835l-9.411-9.811c-.2-.233-.434-.334-.601-.334-.167 0-.3.101-.3.334v6.975c0 3.704 3.27 2.136 3.27 3.337 0 .334-.7.334-.9.334-.1 0-.701-.134-3.271-.134-1.702 0-2.736.134-3.271.134-.367 0-.834-.033-.834-.534 0-.534 2.369.033 2.369-2.803V85.748c0-2.771-2.803-1.97-2.803-2.837 0-.301.134-.367.434-.367 1.068 0 2.136.134 3.237.134 1.401 0 2.436-.134 3.437-.134.167 0 .267.101.267.301 0 .733-1.936.4-1.936 2.77v7.508c0 .201.067.334.167.334s.233-.033.367-.167l6.707-6.074zM288.334 85.414c-.033-2.437-2.703-1.769-2.703-2.503 0-.301.067-.367.334-.367 1.234 0 2.436.134 3.671.134 1.034 0 2.069-.134 3.104-.134.534 0 .634.066.634.334 0 .801-2.402.033-2.402 2.536v17.92c0 2.27 2.97 1.502 2.97 2.503 0 .233-.101.334-.667.334-.768 0-2.203-.134-3.638-.134-2.036 0-2.736.134-3.204.134-.601 0-.7-.167-.7-.501 0-.968 2.603.134 2.603-3.17V85.414zM312.76 102.533c2.403 3.671 4.038 2.436 4.038 3.237 0 .4-1.869.4-2.169.4-2.437 0-3.737-1.702-5.006-3.604l-3.704-5.84c-1.201-1.869-.701-1.769-4.438-1.769-1.067 0-.867.601-.867.935v7.041c0 2.87 3.47 1.835 3.47 2.97 0 .334-.3.268-.566.268-.301 0-1.068-.134-3.838-.134-1.269 0-2.536.134-3.805.134-.2 0-.334-.167-.334-.367 0-.835 2.437-.367 2.437-2.903V85.914c0-3.203-2.87-1.835-2.87-2.97 0-.2.268-.4.668-.4.601 0 .434.134 2.136.134 1.936 0 3.837-.134 5.572-.134.534 0 7.909-.667 7.909 5.773 0 2.603-1.869 4.839-4.205 5.772l5.572 8.444zm-12.147-9.177c0 .634 2.068.467 3.637.467 1.436 0 4.639-.601 4.639-4.738 0-4.071-3.104-5.439-6.374-5.439-1.201 0-1.901-.067-1.901 1.234v8.476zM329.107 82.243c6.273 0 8.009 2.57 8.977 2.57.268 0 .468-.334.802-.334.366 0 .366.534.467 2.703.066 1.769.367 2.87-.2 2.87-.4 0-.634-.868-.768-1.102-2.069-3.57-4.438-5.74-8.743-5.74-6.508 0-9.645 4.339-9.645 10.546 0 5.807 3.337 11.613 9.744 11.613 5.239 0 8.51-3.338 9.011-4.873.066-.233.267-.434.467-.434.167 0 .334.2.301.367l-.768 3.337c-.033.134-2.403 2.637-9.911 2.637-6.841 0-11.747-4.705-11.747-11.613s4.972-12.547 12.013-12.547zM343.453 85.414c-.033-2.437-2.903-1.769-2.903-2.503 0-.301.268-.367.534-.367 1.235 0 2.437.134 3.671.134 1.034 0 2.069-.134 3.104-.134.567 0 .634.2.634.334 0 .667-2.402.033-2.402 2.536v7.208c0 .467 0 .601.501.601h12.213c.334 0 .268-.834.268-.968v-6.841c0-2.303-2.503-1.735-2.503-2.503 0-.2.066-.367.567-.367 1.102 0 2.837.134 3.471.134 1.234 0 1.735-.134 2.402-.134.868 0 .935.334.935.534 0 .601-2.236.033-2.236 2.336v17.687c0 2.436 3.037 1.835 3.037 2.67 0 .1-.134.4-.367.4-.9 0-1.936-.134-3.137-.134-2.136 0-3.07.134-3.704.134-.301 0-.801.1-.801-.435 0-.801 2.336-.333 2.336-2.436v-8.009c0-.534.134-.835-.268-.835H346.49c-.4 0-.4.2-.4.567v8.31c0 2.27 3.17 1.535 3.17 2.569 0 .167-.233.268-.533.268-.435 0-2.87-.134-4.639-.134-2.37 0-2.736.134-2.87.134-.267 0-.367-.167-.367-.501 0-.968 2.603.134 2.603-3.17V85.414zM371.08 92.255c0 1.135-.066 1.135 1.269 1.135h3.604c3.47 0 2.569-2.67 3.37-2.67.267 0 .367.367.367.634 0 1.168-.067 2.303-.067 3.371 0 .867.067 1.735.067 2.636 0 .301-.134.435-.367.435-1.034 0 .1-2.938-2.703-2.938h-4.938c-.701 0-.602.567-.602 1.068v6.141c0 1.969-.267 2.77 2.537 2.77 7.708 0 8.843-3.438 9.276-3.438.233 0 .268.334.268.4 0 1.201-.868 2.369-1.669 3.237-1.067 1.201-1.802 1.135-3.271 1.135-2.536 0-5.072-.2-7.608-.134-1.335.033-2.736.134-4.071.134-.3 0-.501-.067-.501-.334.067-.4.401-.334 1.469-.868.868-.4.935-1.334.935-2.902V86.849c0-1.502 0-3.104-1.802-3.37-.268-.067-1.002-.134-1.002-.534 0-.267.2-.4 1.168-.4 6.308 0 8.043.134 9.444.134.668 0 3.737-.134 4.772-.134.267 0 .333.334.333.734 0 3.704-.467 3.971-.667 3.971-.801 0-.267-1.602-.801-2.369-.868-1.135-4.339-.935-5.673-.935-3.204 0-3.138-.133-3.138 2.103v6.206zM394.369 86.114c0-3.403-2.736-2.336-2.736-3.236 0-.233.267-.334.467-.334 1.034 0 2.002.134 3.004.134 2.202 0 4.371-.134 7.241-.134 5.906 0 11.713 4.472 11.713 10.646 0 7.675-3.638 12.981-12.881 12.981-1.702 0-3.404-.134-5.105-.134-.301 0-3.505.134-3.738.134-.267 0-.333-.134-.333-.334 0-.768 2.369.066 2.369-3.104V86.114zm2.636 15.218c0 .534-.1 2.136.2 2.436 1.102 1.102 3.638 1.502 5.14 1.502 4.738 0 9.243-2.536 9.243-10.245 0-7.408-4.938-11.613-11.279-11.646-3.17 0-3.304.534-3.304 2.103v15.85zM420.061 92.255c0 1.135-.066 1.135 1.269 1.135h3.604c3.47 0 2.569-2.67 3.37-2.67.267 0 .367.367.367.634 0 1.168-.067 2.303-.067 3.371 0 .867.067 1.735.067 2.636 0 .301-.134.435-.367.435-1.034 0 .1-2.938-2.703-2.938h-4.938c-.701 0-.602.567-.602 1.068v6.141c0 1.969-.267 2.77 2.537 2.77 7.708 0 8.843-3.438 9.276-3.438.233 0 .268.334.268.4 0 1.201-.868 2.369-1.669 3.237-1.067 1.201-1.802 1.135-3.271 1.135-2.536 0-5.072-.2-7.608-.134-1.335.033-2.736.134-4.071.134-.3 0-.501-.067-.501-.334.067-.4.401-.334 1.469-.868.868-.4.935-1.334.935-2.902V86.849c0-1.502 0-3.104-1.802-3.37-.268-.067-1.002-.134-1.002-.534 0-.267.2-.4 1.168-.4 6.308 0 8.043.134 9.444.134.668 0 3.737-.134 4.772-.134.267 0 .333.334.333.734 0 3.704-.467 3.971-.667 3.971-.801 0-.267-1.602-.801-2.369-.868-1.135-4.339-.935-5.673-.935-3.204 0-3.138-.133-3.138 2.103v6.206zM449.925 102.533c2.403 3.671 4.038 2.436 4.038 3.237 0 .4-1.869.4-2.169.4-2.437 0-3.737-1.702-5.006-3.604l-3.704-5.84c-1.201-1.869-.701-1.769-4.438-1.769-1.067 0-.867.601-.867.935v7.041c0 2.87 3.47 1.835 3.47 2.97 0 .334-.3.268-.566.268-.301 0-1.068-.134-3.838-.134-1.269 0-2.536.134-3.805.134-.2 0-.334-.167-.334-.367 0-.835 2.437-.367 2.437-2.903V85.914c0-3.203-2.87-1.835-2.87-2.97 0-.2.268-.4.668-.4.601 0 .434.134 2.136.134 1.936 0 3.837-.134 5.572-.134.534 0 7.909-.667 7.909 5.773 0 2.603-1.869 4.839-4.205 5.772l5.572 8.444zm-12.147-9.177c0 .634 2.068.467 3.637.467 1.436 0 4.639-.601 4.639-4.738 0-4.071-3.104-5.439-6.374-5.439-1.201 0-1.901-.067-1.901 1.234v8.476z"/></g><g fill="#31567d"><path d="M201.715 176.966h7.78v10.615a22.519 22.519 0 0 1-3.666.883c-1.171.173-2.437.26-3.796.26-3.201 0-5.669-.947-7.405-2.842s-2.603-4.567-2.603-8.019c0-3.403.979-6.067 2.936-7.99 1.957-1.924 4.652-2.886 8.084-2.886 2.208 0 4.3.425 6.276 1.272l-1.215 2.878c-1.716-.79-3.433-1.186-5.148-1.186-2.256 0-4.04.709-5.351 2.126s-1.967 3.355-1.967 5.813c0 2.584.591 4.549 1.772 5.894 1.181 1.345 2.88 2.018 5.098 2.018 1.118 0 2.314-.14 3.586-.42v-5.452h-4.382v-2.964zM221.195 188.724c-2.487 0-4.433-.726-5.835-2.177-1.402-1.45-2.104-3.449-2.104-5.994 0-2.612.651-4.666 1.952-6.161 1.302-1.494 3.09-2.241 5.366-2.241 2.111 0 3.779.642 5.004 1.924 1.224 1.282 1.836 3.046 1.836 5.293v1.836h-10.658c.048 1.553.467 2.746 1.258 3.58s1.904 1.251 3.341 1.251c.945 0 1.825-.089 2.639-.268.815-.179 1.69-.475 2.625-.89v2.763c-.829.395-1.668.675-2.516.838-.849.164-1.818.246-2.908.246zm-.621-13.999c-1.08 0-1.945.343-2.596 1.026-.65.686-1.039 1.683-1.164 2.994h7.26c-.019-1.321-.337-2.321-.954-3.001-.618-.68-1.467-1.019-2.546-1.019zM244.754 188.435h-3.413v-9.863c0-1.224-.231-2.138-.694-2.74-.462-.603-1.186-.904-2.169-.904-1.312 0-2.273.427-2.885 1.28s-.918 2.273-.918 4.259v7.969h-3.398v-15.995h2.661l.477 2.098h.173c.443-.762 1.087-1.351 1.931-1.765.844-.415 1.772-.622 2.784-.622 2.458 0 4.088.839 4.888 2.517h.231c.472-.791 1.137-1.408 1.996-1.852.858-.443 1.841-.665 2.95-.665 1.909 0 3.3.482 4.172 1.446s1.309 2.435 1.309 4.411v10.427h-3.398v-9.863c0-1.224-.234-2.138-.701-2.74-.468-.603-1.193-.904-2.177-.904-1.321 0-2.288.412-2.899 1.237-.612.824-.918 2.089-.918 3.796v8.473zM266.577 188.724c-2.487 0-4.433-.726-5.835-2.177-1.402-1.45-2.104-3.449-2.104-5.994 0-2.612.651-4.666 1.952-6.161 1.302-1.494 3.09-2.241 5.366-2.241 2.111 0 3.779.642 5.004 1.924 1.224 1.282 1.836 3.046 1.836 5.293v1.836h-10.658c.048 1.553.467 2.746 1.258 3.58s1.904 1.251 3.341 1.251c.945 0 1.825-.089 2.639-.268.815-.179 1.69-.475 2.625-.89v2.763c-.829.395-1.668.675-2.516.838-.849.164-1.818.246-2.908.246zm-.621-13.999c-1.08 0-1.945.343-2.596 1.026-.65.686-1.039 1.683-1.164 2.994h7.26c-.019-1.321-.337-2.321-.954-3.001-.618-.68-1.467-1.019-2.546-1.019zM276.455 168.202c0-.607.167-1.075.499-1.402.333-.328.808-.492 1.424-.492.598 0 1.063.164 1.396.492.333.327.499.795.499 1.402 0 .579-.166 1.034-.499 1.367-.333.332-.798.499-1.396.499-.617 0-1.092-.167-1.424-.499-.333-.333-.499-.788-.499-1.367zm3.601 20.233h-3.398V172.44h3.398v15.995zM298.986 188.435h-3.413v-9.834c0-1.234-.248-2.155-.745-2.763s-1.285-.911-2.365-.911c-1.437 0-2.487.425-3.152 1.273-.666.848-.998 2.271-.998 4.266v7.969h-3.398V172.44h2.661l.477 2.098h.173c.482-.762 1.167-1.351 2.054-1.765.887-.415 1.871-.622 2.95-.622 3.837 0 5.756 1.952 5.756 5.857v10.427zM309.109 188.724c-1.996 0-3.553-.723-4.671-2.169-1.119-1.446-1.678-3.476-1.678-6.089 0-2.622.566-4.664 1.699-6.124 1.133-1.461 2.702-2.191 4.708-2.191 2.102 0 3.702.776 4.801 2.328h.173c-.164-1.147-.246-2.054-.246-2.719v-5.828h3.413v22.503h-2.661l-.593-2.097h-.159c-1.088 1.591-2.684 2.386-4.786 2.386zm.912-2.748c1.398 0 2.416-.393 3.052-1.178.636-.786.964-2.062.983-3.825v-.478c0-2.015-.328-3.447-.983-4.295-.656-.849-1.683-1.273-3.081-1.273-1.195 0-2.116.484-2.762 1.454-.646.969-.969 2.35-.969 4.143 0 1.774.313 3.127.94 4.057.626.93 1.566 1.395 2.82 1.395zM329.154 188.724c-2.487 0-4.433-.726-5.835-2.177-1.402-1.45-2.104-3.449-2.104-5.994 0-2.612.651-4.666 1.952-6.161 1.302-1.494 3.09-2.241 5.366-2.241 2.111 0 3.779.642 5.004 1.924 1.224 1.282 1.836 3.046 1.836 5.293v1.836h-10.658c.048 1.553.467 2.746 1.258 3.58s1.904 1.251 3.341 1.251c.945 0 1.825-.089 2.639-.268.815-.179 1.69-.475 2.625-.89v2.763c-.829.395-1.668.675-2.516.838-.85.164-1.819.246-2.908.246zm-.622-13.999c-1.08 0-1.945.343-2.596 1.026-.65.686-1.039 1.683-1.164 2.994h7.26c-.019-1.321-.337-2.321-.954-3.001-.618-.68-1.466-1.019-2.546-1.019zM356.429 188.435l-6.131-17.658h-.116c.164 2.623.246 5.081.246 7.376v10.282h-3.138v-21.144h4.874l5.871 16.819h.087l6.045-16.819h4.889v21.144h-3.326v-10.456c0-1.051.026-2.42.079-4.107.053-1.687.099-2.709.138-3.065h-.116l-6.349 17.629h-3.053zM384.269 188.435l-.68-2.228h-.116c-.771.975-1.547 1.637-2.328 1.989-.781.352-1.784.527-3.008.527-1.572 0-2.799-.424-3.681-1.272-.883-.849-1.323-2.049-1.323-3.601 0-1.649.612-2.893 1.837-3.731 1.224-.839 3.09-1.297 5.597-1.374l2.762-.087v-.854c0-1.021-.238-1.786-.716-2.292s-1.217-.759-2.22-.759c-.819 0-1.605.12-2.357.361s-1.475.525-2.169.854l-1.1-2.43a11.816 11.816 0 0 1 2.85-1.034 13.115 13.115 0 0 1 2.921-.354c2.034 0 3.569.443 4.606 1.33 1.036.888 1.555 2.28 1.555 4.18v10.774h-2.43zm-5.062-2.314c1.233 0 2.225-.345 2.972-1.034s1.121-1.656 1.121-2.9v-1.388l-2.054.087c-1.601.058-2.765.325-3.493.803-.728.477-1.092 1.207-1.092 2.19 0 .714.212 1.266.637 1.656.424.391 1.06.586 1.909.586zM405.513 188.435H402.1v-9.834c0-1.234-.248-2.155-.744-2.763-.497-.607-1.285-.911-2.365-.911-1.437 0-2.487.425-3.152 1.273-.665.848-.998 2.271-.998 4.266v7.969h-3.398V172.44h2.661l.477 2.098h.174c.482-.762 1.167-1.351 2.054-1.765.887-.415 1.87-.622 2.95-.622 3.837 0 5.756 1.952 5.756 5.857v10.427zM424.313 188.435H420.9v-9.834c0-1.234-.248-2.155-.744-2.763-.497-.607-1.285-.911-2.365-.911-1.437 0-2.487.425-3.152 1.273-.665.848-.998 2.271-.998 4.266v7.969h-3.398V172.44h2.661l.477 2.098h.174c.482-.762 1.167-1.351 2.054-1.765.887-.415 1.87-.622 2.95-.622 3.837 0 5.756 1.952 5.756 5.857v10.427zM443.114 188.435h-3.413v-9.834c0-1.234-.248-2.155-.744-2.763-.497-.607-1.285-.911-2.365-.911-1.427 0-2.476.427-3.146 1.28s-1.005 2.282-1.005 4.288v7.939h-3.398v-22.503h3.398v5.713c0 .916-.058 1.895-.174 2.936h.217a4.717 4.717 0 0 1 1.931-1.793c.825-.425 1.786-.637 2.886-.637 3.876 0 5.813 1.952 5.813 5.857v10.428zM454.829 188.724c-2.487 0-4.433-.726-5.836-2.177-1.402-1.45-2.104-3.449-2.104-5.994 0-2.612.65-4.666 1.952-6.161 1.302-1.494 3.09-2.241 5.365-2.241 2.111 0 3.779.642 5.004 1.924s1.837 3.046 1.837 5.293v1.836h-10.659c.049 1.553.468 2.746 1.259 3.58.79.834 1.903 1.251 3.341 1.251.944 0 1.824-.089 2.639-.268s1.689-.475 2.625-.89v2.763a10.4 10.4 0 0 1-2.517.838c-.848.164-1.817.246-2.906.246zm-.622-13.999c-1.08 0-1.945.343-2.596 1.026-.651.686-1.039 1.683-1.164 2.994h7.26c-.02-1.321-.338-2.321-.955-3.001s-1.466-1.019-2.545-1.019zM464.706 168.202c0-.607.166-1.075.499-1.402.332-.328.807-.492 1.424-.492.598 0 1.063.164 1.396.492.333.327.499.795.499 1.402 0 .579-.166 1.034-.499 1.367-.332.332-.798.499-1.396.499-.617 0-1.092-.167-1.424-.499-.333-.333-.499-.788-.499-1.367zm3.601 20.233h-3.398V172.44h3.398v15.995zM486.645 188.435h-3.413v-9.863c0-1.224-.231-2.138-.694-2.74s-1.186-.904-2.169-.904c-1.312 0-2.273.427-2.886 1.28s-.918 2.273-.918 4.259v7.969h-3.398v-15.995h2.661l.477 2.098h.174c.443-.762 1.087-1.351 1.931-1.765.844-.415 1.771-.622 2.784-.622 2.458 0 4.088.839 4.888 2.517h.231c.473-.791 1.138-1.408 1.996-1.852s1.842-.665 2.95-.665c1.909 0 3.3.482 4.172 1.446.873.964 1.31 2.435 1.31 4.411v10.427h-3.398v-9.863c0-1.224-.234-2.138-.702-2.74s-1.192-.904-2.176-.904c-1.321 0-2.288.412-2.9 1.237-.612.824-.918 2.089-.918 3.796v8.473z"/></g></svg>