<svg xmlns="http://www.w3.org/2000/svg" width="169.893" height="160.215" viewBox="0 0 169.893 160.215"><g fill="#31567d"><path d="M72.918 123.456v-5.07h7.199v-.479c0-5.078-2.341-8.799-18.476-6.004l-26.533 4.725-15.266 21.178 36.635-6.498c10.977-1.883 20.614-2.277 23.639 6.449v-14.301h-7.198zM85.123 137.756c0-6.908 4.081-11.652 12.412-19.984l5.871-5.869 26.83 4.725 15.293 21.154-35.181-6.068c-11.929-2.29-22.04-3.094-25.225 6.042z"/></g><g fill="#31567d"><path d="M86.61 118.372c2.658-5.701 8.318-10.857 11.572-14.113l2.315-2.352c9.853-9.854 11.746-13.928 12.345-20.715.026-.354.534 1.33.687 2.521.508 3.998.214 6.9-1.146 10.904-2.03 5.984-6.842 10.752-13.084 16.994l-6.791 6.76H86.61zM92.332 35.754c0-.053.164-.083.164 0v7.858c0 7.106-9.132 15.305-12.771 18.92L66.344 75.948c-4.626 4.627-13.887 13.762-9.999 22.576.129.293.249.545-.247.193-.989-.701-2.489-3.17-2.889-7.678-.713-8.033 4.765-15.227 11.521-21.984l12.764-12.778C90.439 43.331 91.702 41.05 92.332 35.754z"/><path d="M79.725 75.979c3.638-3.613 12.771-11.812 12.771-18.918v-7.858c0-.082-.164-.053-.164 0-.63 5.297-1.893 7.578-14.837 20.523L65.638 81.6c-4.307 4.307-8.258 8.822-8.076 16.113.112 4.469 2.359 8.172 5.739 9.045 1.39.299 1.306.117.975-.023-4.774-2.254-4.431-10.875 3.286-18.592l12.163-12.164zM64.84 64.095c-9.853 9.851-11.747 13.927-12.344 20.712-.027.355-.535-1.33-.687-2.521-.509-3.998-.214-6.9 1.145-10.902 2.031-5.984 6.843-10.751 13.085-16.994l11.455-11.474C90.439 29.972 91.702 27.69 92.332 22.393c0-.053.164-.082.164 0v7.858c0 7.107-9.132 15.307-12.771 18.92L64.84 64.095zM85.291 131.266c-.007.061-.167.061-.167 0v-7.811h3.269c-1.848 2.649-2.792 5.212-3.102 7.811zM85.316 118.385c-.006.059-.168.059-.168 0v-7.951c0-5.973 5.853-12.43 11.655-18.193l3.764-3.762c3.037-3.037 12.314-12.188 8.426-21.001-.129-.293-.248-.545.248-.194.988.702 2.488 3.17 2.888 7.678.713 8.033-4.765 15.227-11.521 21.984l-3.48 3.496c-8.391 8.391-11.182 12.148-11.812 17.943z"/><path d="M85.306 104.596c-.007.061-.167.061-.167 0v-8.07c0-5.695 5.648-11.84 8.388-14.582l4.249-4.238c7.717-7.717 8.061-16.338 3.287-18.591-.333-.142-.416-.322.974-.022 3.381.872 5.627 4.575 5.738 9.043.184 7.29-3.702 11.776-8.01 16.084l-3.444 3.443c-7.205 7.205-10.359 11.416-11.015 16.933z"/></g><path fill="#31567d" d="M146.042 122.02c1.11 0 2.054.391 2.837 1.172.78.781 1.172 1.727 1.172 2.836s-.392 2.053-1.176 2.834c-.779.781-1.727 1.17-2.833 1.17-1.241 0-2.255-.469-3.047-1.412-.639-.758-.959-1.623-.959-2.592 0-.986.315-1.852.953-2.604.802-.933 1.818-1.404 3.053-1.404zm0 .443c-.98 0-1.824.35-2.521 1.045a3.457 3.457 0 0 0-1.04 2.523c0 .982.348 1.824 1.04 2.521a3.447 3.447 0 0 0 2.521 1.043 3.44 3.44 0 0 0 2.519-1.043 3.445 3.445 0 0 0 1.044-2.521c0-.99-.347-1.83-1.041-2.525a3.446 3.446 0 0 0-2.522-1.043zm.503 3.553l.896 1.307.11.158c.277.406.533.617.755.629l.105.004c.072.004.107.037.102.1-.007.109-.185.164-.527.164-.394 0-.747-.238-1.063-.713l-.84-1.26-.043-.074c-.048-.074-.12-.111-.227-.111h-.447l-.048.006-.018.068v1.164c0 .26.034.43.105.514.07.078.227.133.472.158.108.012.164.053.171.123.002.074-.05.109-.161.109-.034 0-.104-.004-.207-.016a3.45 3.45 0 0 0-.424-.018h-.503c-.066 0-.158.008-.278.023-.09.008-.145.01-.169.01-.099 0-.15-.035-.15-.111 0-.059.043-.094.126-.113.173-.041.283-.115.332-.229.045-.109.07-.35.07-.717v-2.375l-.008-.342c0-.32-.111-.496-.335-.527l-.155-.025c-.1-.018-.149-.061-.149-.129 0-.072.053-.111.156-.111.025 0 .107.006.241.018.073.006.17.006.297.006.105 0 .28-.006.521-.023.186-.008.342-.014.478-.014 1.072 0 1.609.395 1.609 1.184 0 .495-.265.882-.794 1.163zm-1.057-.144h.377c.586 0 .881-.283.881-.855a.93.93 0 0 0-.329-.725 1.189 1.189 0 0 0-.814-.291c-.205 0-.31.08-.31.242l.008.111v1.328c0 .092.01.143.027.162.018.02.07.028.16.028z"/></svg>
