<?xml version="1.0" standalone="no"?>
<!DOCTYPE svg PUBLIC "-//W3C//DTD SVG 20010904//EN"
 "http://www.w3.org/TR/2001/REC-SVG-20010904/DTD/svg10.dtd">
<svg version="1.0" xmlns="http://www.w3.org/2000/svg"
 width="680.000000pt" height="680.000000pt" viewBox="0 0 680.000000 680.000000"
 preserveAspectRatio="xMidYMid meet">
<metadata>
Created by potrace 1.11, written by Peter Selinger 2001-2013
</metadata>
<g transform="translate(0.000000,680.000000) scale(0.100000,-0.100000)"
fill="#000000" stroke="none">
<path d="M3689 5673 c-1 -32 -4 -50 -8 -55 -2 -2 -4 -13 -7 -26 -2 -12 -13
-40 -24 -61 -10 -21 -16 -41 -13 -45 4 -3 1 -6 -5 -6 -7 0 -12 -7 -12 -15 0
-8 -4 -15 -9 -15 -5 0 -13 -9 -16 -20 -3 -11 -12 -26 -18 -32 -7 -7 -28 -33
-47 -58 -73 -94 -218 -245 -670 -699 -442 -443 -523 -529 -590 -626 -19 -27
-38 -52 -41 -55 -20 -16 -92 -169 -118 -247 -35 -107 -45 -176 -44 -293 1 -84
21 -206 31 -195 6 6 7 10 17 82 13 99 56 208 124 313 90 141 177 234 716 775
248 249 466 470 485 491 27 30 122 154 168 219 31 45 79 166 88 222 9 62 11
339 2 361 -5 12 -7 7 -9 -15z"/>
<path d="M3696 5153 c-4 -9 -9 -32 -12 -52 -15 -95 -75 -202 -182 -330 -88
-104 -132 -149 -579 -600 -430 -433 -474 -479 -521 -541 -15 -19 -34 -42 -42
-51 -42 -48 -121 -173 -154 -243 -37 -80 -53 -130 -73 -226 -5 -25 -5 -189 0
-197 3 -5 8 -26 11 -48 10 -64 45 -149 78 -189 17 -20 32 -35 35 -33 2 3 -4
24 -14 48 -18 46 -24 201 -10 264 19 81 135 305 158 305 5 0 9 7 9 15 0 7 6
18 13 22 7 4 20 17 28 29 31 46 118 137 542 564 448 450 489 493 541 565 17
22 33 42 36 45 18 13 101 172 120 228 18 54 21 90 23 253 1 104 1 189 1 189
-1 0 -5 -7 -8 -17z"/>
<path d="M3695 4618 c-2 -7 -9 -38 -15 -68 -23 -115 -100 -234 -278 -429 -42
-47 -250 -258 -461 -470 -382 -385 -469 -478 -519 -555 -31 -49 -82 -152 -85
-175 -1 -9 -5 -20 -9 -26 -12 -19 -22 -120 -21 -205 3 -184 105 -337 243 -365
l35 -7 -41 30 c-61 45 -89 108 -91 207 0 44 5 105 13 135 14 51 79 193 103
222 6 7 32 40 59 73 27 33 217 229 423 435 206 206 398 403 427 438 122 148
198 286 217 394 7 36 13 378 7 378 -1 0 -4 -6 -7 -12z"/>
<path d="M4055 4229 c73 -42 107 -107 111 -209 4 -92 -14 -167 -65 -271 -49
-99 -111 -178 -250 -319 -199 -202 -248 -257 -309 -348 -60 -88 -103 -173
-117 -232 -14 -57 -18 -111 -17 -244 0 -201 1 -205 18 -127 20 94 83 215 163
317 91 116 100 126 315 344 171 174 296 317 296 339 0 5 4 11 8 13 16 6 72
138 88 205 18 80 21 209 5 276 -35 149 -123 247 -236 263 -27 4 -28 3 -10 -7z"/>
<path d="M4363 3905 c37 -122 43 -221 17 -320 -15 -58 -78 -188 -123 -254 -65
-97 -96 -131 -367 -407 -185 -188 -301 -320 -348 -393 -9 -14 -22 -32 -29 -39
-7 -7 -13 -18 -13 -23 0 -5 -10 -26 -23 -47 -23 -37 -49 -107 -62 -170 -9 -43
-10 -370 -2 -379 4 -3 7 0 8 8 7 103 54 216 137 334 56 79 152 184 362 399
107 109 206 210 220 225 22 22 52 59 120 144 8 11 20 24 25 31 6 6 22 29 35
51 13 22 27 42 30 45 18 15 87 166 110 241 24 75 27 100 24 200 -1 63 -4 123
-7 134 -19 95 -54 173 -95 214 -21 21 -25 22 -19 6z"/>
<path d="M4509 3308 c-1 -60 -33 -184 -67 -258 -23 -52 -104 -180 -114 -180
-4 0 -8 -6 -8 -14 0 -8 -3 -16 -8 -18 -4 -1 -22 -22 -40 -45 -42 -54 -160
-179 -352 -373 -204 -206 -266 -273 -321 -345 -41 -54 -129 -194 -129 -206 0
-3 53 -5 117 -5 l117 0 238 238 c259 260 348 358 420 458 58 82 123 209 143
280 9 30 19 62 22 70 20 52 31 246 19 325 -13 78 -20 105 -27 105 -5 0 -9 -15
-10 -32z"/>
<path d="M2807 2164 c-2 -3 -41 -7 -85 -9 -44 -2 -93 -6 -108 -9 -16 -3 -49
-8 -74 -11 -25 -3 -67 -10 -95 -15 -86 -17 -98 -20 -140 -25 -22 -3 -47 -8
-56 -11 -9 -2 -32 -7 -50 -9 -19 -3 -45 -7 -59 -10 -22 -4 -156 -28 -235 -41
-16 -2 -37 -7 -45 -9 -8 -3 -32 -7 -54 -9 -21 -3 -46 -8 -55 -10 -9 -3 -36 -8
-61 -11 -25 -4 -67 -11 -95 -16 -108 -22 -158 -30 -175 -31 -8 0 -35 -30 -60
-66 -25 -37 -49 -72 -55 -78 -9 -10 -34 -45 -157 -217 -20 -29 -44 -61 -53
-72 -9 -11 -46 -63 -83 -115 -37 -52 -80 -113 -96 -135 -134 -182 -128 -170
-80 -161 21 4 53 9 69 11 17 2 41 7 55 10 14 3 39 8 55 10 17 3 55 10 85 16
68 13 85 16 135 23 41 6 70 11 115 21 14 3 39 7 55 10 17 2 40 6 51 9 12 2 37
7 55 10 19 3 45 8 59 10 14 3 66 12 115 21 50 8 104 18 120 21 31 6 40 8 113
19 24 4 49 8 55 9 45 9 135 26 168 31 14 2 63 11 108 19 45 9 85 15 89 15 4
-1 9 -1 12 1 3 1 16 3 30 5 14 2 45 6 70 10 25 3 113 8 195 10 172 4 255 -10
351 -55 61 -30 149 -108 160 -142 3 -10 10 -18 15 -18 5 0 9 -8 9 -18 0 -10 6
-26 13 -36 11 -15 13 31 13 263 l0 281 -30 0 c-17 1 -81 1 -143 1 l-111 0 -4
57 c-1 31 -1 77 2 102 l5 44 140 1 140 0 -3 59 c-6 143 -98 219 -285 232 -45
3 -87 7 -94 9 -6 2 -13 1 -16 -1z"/>
<path d="M3924 1907 c-115 -117 -227 -232 -250 -257 -52 -58 -148 -184 -165
-218 -8 -15 -16 -29 -19 -32 -7 -7 -39 -80 -55 -125 -15 -42 -32 -184 -20
-173 3 3 7 12 9 20 4 30 58 108 101 146 50 44 113 77 190 99 59 17 293 25 380
13 33 -5 80 -11 105 -14 25 -3 56 -8 70 -10 14 -3 52 -9 85 -15 33 -6 74 -13
90 -16 17 -3 46 -8 65 -11 19 -2 46 -7 60 -10 55 -10 69 -13 101 -18 19 -3 45
-8 59 -10 95 -18 159 -29 185 -33 17 -2 55 -9 85 -14 30 -6 73 -12 95 -15 22
-3 47 -7 55 -10 8 -3 31 -8 50 -10 19 -3 46 -7 60 -9 14 -3 41 -8 60 -10 19
-3 46 -8 60 -11 14 -3 34 -7 45 -9 11 -2 54 -9 95 -15 41 -7 84 -14 95 -17 11
-2 36 -6 55 -9 19 -2 46 -7 60 -9 83 -16 92 -17 84 -3 -4 7 -40 56 -79 110
-38 53 -77 106 -85 118 -8 13 -24 35 -36 49 -11 14 -38 51 -60 82 -21 31 -95
134 -164 229 -69 94 -129 179 -135 188 -34 55 -78 70 -270 97 -11 1 -36 5 -55
9 -74 13 -98 17 -180 31 -47 8 -95 17 -106 19 -12 2 -37 7 -55 10 -19 3 -83
14 -144 25 -60 11 -126 23 -145 26 -19 3 -57 9 -85 14 -27 6 -57 10 -66 10 -8
1 -109 -95 -225 -212z"/>
<path d="M5785 1705 c-46 -21 -63 -38 -83 -84 -47 -105 23 -216 140 -222 119
-6 201 127 143 234 -37 69 -132 103 -200 72z m121 -21 c73 -35 100 -115 64
-190 -37 -75 -134 -102 -199 -55 -57 40 -77 94 -59 157 23 86 113 126 194 88z"/>
<path d="M5778 1638 c15 -15 16 -150 2 -164 -8 -8 0 -11 23 -10 31 1 33 3 23
21 -15 26 -14 57 1 62 7 3 25 -14 40 -36 31 -44 51 -57 67 -41 7 7 6 10 -1 10
-7 0 -24 16 -39 35 -22 30 -24 37 -13 51 17 21 19 55 3 71 -7 7 -36 13 -65 13
-41 0 -50 -3 -41 -12z m80 -10 c13 -13 17 -58 5 -59 -5 0 -16 -2 -25 -4 -18
-3 -20 1 -20 30 0 36 3 45 15 45 7 0 18 -5 25 -12z"/>
<path d="M3433 1662 c-13 -2 -23 -11 -24 -20 0 -9 -1 -78 -2 -154 -2 -134 4
-165 18 -91 11 61 34 124 71 191 19 34 34 64 34 66 0 6 -72 11 -97 8z"/>
</g>
</svg>
